<svg aria-hidden="true" style="position: absolute; width: 0; height: 0; overflow: hidden;" version="1.1" xmlns="http://www.w3.org/2000/svg" xmlns:xlink="http://www.w3.org/1999/xlink">
<defs>
<symbol id="icon-youtube" viewBox="0 0 32 32">
<path d="M31.681 9.6c0 0-0.313-2.206-1.275-3.175-1.219-1.275-2.581-1.281-3.206-1.356-4.475-0.325-11.194-0.325-11.194-0.325h-0.012c0 0-6.719 0-11.194 0.325-0.625 0.075-1.987 0.081-3.206 1.356-0.963 0.969-1.269 3.175-1.269 3.175s-0.319 2.588-0.319 5.181v2.425c0 2.587 0.319 5.181 0.319 5.181s0.313 2.206 1.269 3.175c1.219 1.275 2.819 1.231 3.531 1.369 2.563 0.244 10.881 0.319 10.881 0.319s6.725-0.012 11.2-0.331c0.625-0.075 1.988-0.081 3.206-1.356 0.962-0.969 1.275-3.175 1.275-3.175s0.319-2.587 0.319-5.181v-2.425c-0.006-2.588-0.325-5.181-0.325-5.181zM12.694 20.15v-8.994l8.644 4.513-8.644 4.481z"></path>
</symbol>
<symbol id="icon-instagram" viewBox="0 0 32 32">
<path d="M16 2.881c4.275 0 4.781 0.019 6.462 0.094 1.563 0.069 2.406 0.331 2.969 0.55 0.744 0.288 1.281 0.638 1.837 1.194 0.563 0.563 0.906 1.094 1.2 1.838 0.219 0.563 0.481 1.412 0.55 2.969 0.075 1.688 0.094 2.194 0.094 6.463s-0.019 4.781-0.094 6.463c-0.069 1.563-0.331 2.406-0.55 2.969-0.288 0.744-0.637 1.281-1.194 1.837-0.563 0.563-1.094 0.906-1.837 1.2-0.563 0.219-1.413 0.481-2.969 0.55-1.688 0.075-2.194 0.094-6.463 0.094s-4.781-0.019-6.463-0.094c-1.563-0.069-2.406-0.331-2.969-0.55-0.744-0.288-1.281-0.637-1.838-1.194-0.563-0.563-0.906-1.094-1.2-1.837-0.219-0.563-0.481-1.413-0.55-2.969-0.075-1.688-0.094-2.194-0.094-6.463s0.019-4.781 0.094-6.463c0.069-1.563 0.331-2.406 0.55-2.969 0.288-0.744 0.638-1.281 1.194-1.838 0.563-0.563 1.094-0.906 1.838-1.2 0.563-0.219 1.412-0.481 2.969-0.55 1.681-0.075 2.188-0.094 6.463-0.094zM16 0c-4.344 0-4.887 0.019-6.594 0.094-1.7 0.075-2.869 0.35-3.881 0.744-1.056 0.412-1.95 0.956-2.837 1.85-0.894 0.888-1.438 1.781-1.85 2.831-0.394 1.019-0.669 2.181-0.744 3.881-0.075 1.713-0.094 2.256-0.094 6.6s0.019 4.887 0.094 6.594c0.075 1.7 0.35 2.869 0.744 3.881 0.413 1.056 0.956 1.95 1.85 2.837 0.887 0.887 1.781 1.438 2.831 1.844 1.019 0.394 2.181 0.669 3.881 0.744 1.706 0.075 2.25 0.094 6.594 0.094s4.888-0.019 6.594-0.094c1.7-0.075 2.869-0.35 3.881-0.744 1.050-0.406 1.944-0.956 2.831-1.844s1.438-1.781 1.844-2.831c0.394-1.019 0.669-2.181 0.744-3.881 0.075-1.706 0.094-2.25 0.094-6.594s-0.019-4.887-0.094-6.594c-0.075-1.7-0.35-2.869-0.744-3.881-0.394-1.063-0.938-1.956-1.831-2.844-0.887-0.887-1.781-1.438-2.831-1.844-1.019-0.394-2.181-0.669-3.881-0.744-1.712-0.081-2.256-0.1-6.6-0.1v0z"></path>
<path d="M16 7.781c-4.537 0-8.219 3.681-8.219 8.219s3.681 8.219 8.219 8.219 8.219-3.681 8.219-8.219c0-4.537-3.681-8.219-8.219-8.219zM16 21.331c-2.944 0-5.331-2.387-5.331-5.331s2.387-5.331 5.331-5.331c2.944 0 5.331 2.387 5.331 5.331s-2.387 5.331-5.331 5.331z"></path>
<path d="M26.462 7.456c0 1.060-0.859 1.919-1.919 1.919s-1.919-0.859-1.919-1.919c0-1.060 0.859-1.919 1.919-1.919s1.919 0.859 1.919 1.919z"></path>
</symbol>
<symbol id="icon-linkedin" viewBox="0 0 32 32">
<path d="M12 12h5.535v2.837h0.079c0.77-1.381 2.655-2.837 5.464-2.837 5.842 0 6.922 3.637 6.922 8.367v9.633h-5.769v-8.54c0-2.037-0.042-4.657-3.001-4.657-3.005 0-3.463 2.218-3.463 4.509v8.688h-5.767v-18z"></path>
<path d="M2 12h6v18h-6v-18z"></path>
<path d="M8 7c0 1.657-1.343 3-3 3s-3-1.343-3-3c0-1.657 1.343-3 3-3s3 1.343 3 3z"></path>
</symbol>
<symbol id="icon-facebook" viewBox="0 0 32 32">
<path d="M19 6h5v-6h-5c-3.86 0-7 3.14-7 7v3h-4v6h4v16h6v-16h5l1-6h-6v-3c0-0.542 0.458-1 1-1z"></path>
</symbol>
<symbol id="icon-github" viewBox="0 0 32 32">
<path d="M16 0.395c-8.836 0-16 7.163-16 16 0 7.069 4.585 13.067 10.942 15.182 0.8 0.148 1.094-0.347 1.094-0.77 0-0.381-0.015-1.642-0.022-2.979-4.452 0.968-5.391-1.888-5.391-1.888-0.728-1.849-1.776-2.341-1.776-2.341-1.452-0.993 0.11-0.973 0.11-0.973 1.606 0.113 2.452 1.649 2.452 1.649 1.427 2.446 3.743 1.739 4.656 1.33 0.143-1.034 0.558-1.74 1.016-2.14-3.554-0.404-7.29-1.777-7.29-7.907 0-1.747 0.625-3.174 1.649-4.295-0.166-0.403-0.714-2.030 0.155-4.234 0 0 1.344-0.43 4.401 1.64 1.276-0.355 2.645-0.532 4.005-0.539 1.359 0.006 2.729 0.184 4.008 0.539 3.054-2.070 4.395-1.64 4.395-1.64 0.871 2.204 0.323 3.831 0.157 4.234 1.026 1.12 1.647 2.548 1.647 4.295 0 6.145-3.743 7.498-7.306 7.895 0.574 0.497 1.085 1.47 1.085 2.963 0 2.141-0.019 3.864-0.019 4.391 0 0.426 0.288 0.925 1.099 0.768 6.354-2.118 10.933-8.113 10.933-15.18 0-8.837-7.164-16-16-16z"></path>
</symbol>
<symbol id="icon-behance" viewBox="0 0 51 32">
<path d="M20.396 14.306s4.783-0.355 4.783-5.963c0-5.609-3.913-8.346-8.869-8.346h-16.309v31.342h16.309s9.956 0.314 9.956-9.251c0 0 0.434-7.782-5.87-7.782zM15.135 5.568h1.174s2.217 0 2.217 3.261c0 3.261-1.304 3.733-2.783 3.733h-8.557v-6.994h7.949zM15.848 25.768h-8.662v-8.376h9.123s3.304-0.043 3.304 4.304c0 3.666-2.468 4.044-3.765 4.071zM39.544 7.971c-12.053 0-12.042 12.042-12.042 12.042s-0.827 11.981 12.042 11.981c0 0 10.724 0.613 10.724-8.334h-5.515s0.184 3.369-5.025 3.369c0 0-5.516 0.37-5.516-5.453h16.241c0-0 1.777-13.605-10.908-13.605zM34.151 17.392s0.673-4.831 5.515-4.831c4.841 0 4.78 4.831 4.78 4.831h-10.296zM45.731 5.703h-12.931v-3.86h12.931v3.86z"></path>
</symbol>
<symbol id="icon-mouse-click" viewBox="0 0 28 32">
<path d="M22.396 31.852c-0.066 0.033-0.143 0.064-0.224 0.088l-0.010 0.003c-0.076 0.023-0.164 0.039-0.256 0.047l-0.005 0c-0.039 0.004-0.084 0.006-0.13 0.006s-0.091-0.002-0.136-0.006l0.006 0c-0.097-0.007-0.186-0.021-0.272-0.041l0.012 0.002c-0.101-0.027-0.187-0.059-0.27-0.098l0.009 0.004c-0.092-0.042-0.17-0.088-0.244-0.141l0.004 0.003c-0.075-0.056-0.141-0.115-0.203-0.179l-0.001-0.001c-0.062-0.067-0.118-0.141-0.166-0.221l-0.003-0.006-2.365-3.875-2.003 2.344c-0.093 0.111-0.187 0.211-0.285 0.306l-0.001 0.001c-0.102 0.096-0.203 0.185-0.307 0.26l-0.021 0.016c-0.090 0.071-0.192 0.141-0.298 0.206l-0.014 0.008c-0.090 0.056-0.196 0.111-0.307 0.158l-0.016 0.006c-0.072 0.034-0.158 0.067-0.248 0.093l-0.013 0.003c-0.074 0.024-0.162 0.044-0.252 0.056l-0.008 0.001c-0.080 0.012-0.173 0.018-0.267 0.018-0.003 0-0.006 0-0.009-0h0c-0.095-0.004-0.185-0.014-0.272-0.030l0.012 0.002c-0.117-0.023-0.22-0.054-0.318-0.095l0.011 0.004c-0.106-0.043-0.196-0.093-0.281-0.151l0.005 0.003c-0.089-0.062-0.168-0.129-0.239-0.203l-0-0c-0.069-0.077-0.134-0.162-0.191-0.253l-0.005-0.008-0.029-0.052-0.023-0.055-0.336-0.909v-0.044l-1.773-17.857c-0.008-0.052-0.013-0.112-0.013-0.173s0.005-0.121 0.014-0.18l-0.001 0.007c0.022-0.122 0.061-0.231 0.115-0.332l-0.003 0.006c0.088-0.164 0.21-0.3 0.358-0.401l0.004-0.002c0.068-0.047 0.145-0.088 0.227-0.118l0.007-0.002c0.076-0.029 0.164-0.051 0.255-0.062l0.005-0.001c0.037-0.004 0.081-0.007 0.125-0.007 0.075 0 0.148 0.007 0.218 0.021l-0.007-0.001c0.123 0.025 0.232 0.064 0.332 0.118l-0.007-0.003 0.078 0.042c3.518 2.302 6.797 4.443 10.063 6.576l4.948 3.227c0.1 0.064 0.185 0.126 0.266 0.192l-0.006-0.005c0.078 0.061 0.148 0.124 0.213 0.19l0 0 0.016 0.018c0.065 0.065 0.126 0.135 0.181 0.209l0.004 0.005c0.053 0.066 0.102 0.14 0.144 0.218l0.004 0.008c0.049 0.084 0.094 0.183 0.129 0.285l0.003 0.012c0.031 0.088 0.055 0.191 0.067 0.298l0.001 0.007c0.006 0.047 0.009 0.102 0.009 0.158s-0.003 0.11-0.009 0.164l0.001-0.007c-0.012 0.116-0.033 0.221-0.063 0.322l0.003-0.012c-0.059 0.187-0.142 0.349-0.248 0.494l0.003-0.005c-0.055 0.081-0.112 0.151-0.175 0.217l0.001-0.001c-0.066 0.071-0.136 0.136-0.21 0.195l-0.004 0.003c-0.089 0.074-0.187 0.145-0.291 0.209l-0.011 0.007c-0.095 0.059-0.21 0.119-0.328 0.174l-0.021 0.009c-0.122 0.055-0.26 0.107-0.38 0.151-0.106 0.038-0.241 0.076-0.379 0.107l-0.025 0.005c-0.721 0.141-1.44 0.315-2.154 0.487l-0.846 0.201 2.344 3.891c0.044 0.074 0.084 0.16 0.116 0.25l0.003 0.011c0.052 0.144 0.082 0.31 0.082 0.483 0 0.125-0.016 0.247-0.046 0.363l0.002-0.010v0.026c-0.024 0.095-0.054 0.176-0.090 0.254l0.004-0.009c-0.043 0.090-0.087 0.165-0.136 0.237l0.004-0.006c-0.055 0.079-0.113 0.148-0.177 0.211l-0 0c-0.064 0.063-0.134 0.12-0.208 0.171l-0.005 0.003-0.521 0.336c-0.632 0.44-1.366 0.887-2.127 1.29l-0.118 0.057zM9.799 5.068c0.075 0.14 0.119 0.306 0.119 0.483 0 0.575-0.466 1.042-1.042 1.042-0.368 0-0.691-0.191-0.877-0.479l-0.003-0.004-2.083-3.646c-0.069-0.135-0.109-0.295-0.109-0.464 0-0.575 0.466-1.042 1.042-1.042 0.36 0 0.678 0.183 0.865 0.461l0.002 0.004 2.099 3.646zM5.893 17.247c0.135-0.069 0.295-0.109 0.464-0.109 0.575 0 1.042 0.466 1.042 1.042 0 0.36-0.183 0.678-0.461 0.865l-0.004 0.002-3.646 2.099c-0.135 0.069-0.295 0.109-0.464 0.109-0.575 0-1.042-0.466-1.042-1.042 0-0.36 0.183-0.678 0.461-0.865l0.004-0.002 3.646-2.099zM5.354 10.375c0.426 0.137 0.729 0.53 0.729 0.994 0 0.575-0.466 1.042-1.042 1.042-0.080 0-0.158-0.009-0.234-0.026l0.007 0.001-4.034-1.094c-0.412-0.145-0.701-0.531-0.701-0.985 0-0.575 0.466-1.042 1.042-1.042 0.064 0 0.126 0.006 0.187 0.017l-0.006-0.001 4.044 1.094zM21.354 10.721c-0.135 0.069-0.295 0.109-0.464 0.109-0.575 0-1.042-0.466-1.042-1.042 0-0.36 0.183-0.678 0.461-0.865l0.004-0.002 3.646-2.099c0.135-0.069 0.295-0.109 0.464-0.109 0.575 0 1.042 0.466 1.042 1.042 0 0.36-0.183 0.678-0.461 0.865l-0.004 0.002-3.646 2.099zM16.526 5.357c-0.096 0.484-0.517 0.844-1.023 0.844-0.575 0-1.042-0.466-1.042-1.042 0-0.121 0.021-0.238 0.059-0.346l-0.002 0.007 1.073-4.039c0.145-0.412 0.531-0.701 0.985-0.701 0.575 0 1.042 0.466 1.042 1.042 0 0.064-0.006 0.126-0.017 0.187l0.001-0.006-1.076 4.055zM21.779 30.451l2.518-1.526c-0.88-1.464-2.305-3.529-2.997-4.992-0.012-0.026-0.023-0.058-0.030-0.090l-0.001-0.004c-0.010-0.041-0.015-0.089-0.015-0.138 0-0.296 0.206-0.544 0.483-0.609l0.004-0.001c1.401-0.32 2.833-0.622 4.224-0.971 0.18-0.041 0.337-0.093 0.486-0.158l-0.017 0.007c0.129-0.057 0.241-0.124 0.342-0.203l-0.004 0.003c0.036-0.031 0.068-0.063 0.098-0.098l0.001-0.001c0.015-0.018 0.027-0.039 0.036-0.061l0.001-0.002-0.016-0.047c-0.032-0.053-0.070-0.099-0.114-0.137l-0.001-0.001c-0.064-0.059-0.135-0.113-0.21-0.16l-0.006-0.004-14.305-9.344c0.549 5.563 1.354 11.484 1.68 17.008 0.010 0.098 0.026 0.186 0.050 0.272l-0.003-0.011c0.018 0.062 0.041 0.115 0.070 0.165l-0.002-0.004 0.034 0.036c0.011 0.002 0.024 0.003 0.038 0.003s0.026-0.001 0.039-0.003l-0.001 0c0.051-0.012 0.095-0.027 0.137-0.046l-0.005 0.002c0.127-0.058 0.237-0.126 0.336-0.208l-0.003 0.002c0.128-0.107 0.243-0.22 0.348-0.343l0.003-0.004c0.503-0.591 2.5-3.161 2.969-3.432 0.091-0.055 0.202-0.088 0.319-0.088 0.226 0 0.423 0.119 0.533 0.299l0.002 0.003 2.979 4.883z"></path>
</symbol>
<symbol id="icon-mail" viewBox="0 0 32 32">
<path d="M29 4h-26c-1.65 0-3 1.35-3 3v20c0 1.65 1.35 3 3 3h26c1.65 0 3-1.35 3-3v-20c0-1.65-1.35-3-3-3zM12.461 17.199l-8.461 6.59v-15.676l8.461 9.086zM5.512 8h20.976l-10.488 7.875-10.488-7.875zM12.79 17.553l3.21 3.447 3.21-3.447 6.58 8.447h-19.579l6.58-8.447zM19.539 17.199l8.461-9.086v15.676l-8.461-6.59z"></path>
</symbol>
<symbol id="icon-close" viewBox="0 0 32 32">
<path d="M16 0c-8.837 0-16 7.163-16 16s7.163 16 16 16 16-7.163 16-16-7.163-16-16-16zM16 29c-7.18 0-13-5.82-13-13s5.82-13 13-13 13 5.82 13 13-5.82 13-13 13z"></path>
<path d="M21 8l-5 5-5-5-3 3 5 5-5 5 3 3 5-5 5 5 3-3-5-5 5-5z"></path>
</symbol>
</defs>
</svg>
